<mxfile host="Electron" agent="Mozilla/5.0 (Windows NT 10.0; Win64; x64) AppleWebKit/537.36 (KHTML, like Gecko) draw.io/26.0.16 Chrome/132.0.6834.196 Electron/34.2.0 Safari/537.36" version="26.0.16">
  <diagram name="Page-1" id="ankIVg8EF4kjU5vgLQps">
    <mxGraphModel dx="743" dy="539" grid="1" gridSize="10" guides="1" tooltips="1" connect="1" arrows="1" fold="1" page="1" pageScale="1" pageWidth="850" pageHeight="1100" math="0" shadow="0">
      <root>
        <mxCell id="0" />
        <mxCell id="1" parent="0" />
        <mxCell id="7zXNQrcgC3VbLbUue6cI-26" style="edgeStyle=orthogonalEdgeStyle;rounded=0;orthogonalLoop=1;jettySize=auto;html=1;exitX=0.5;exitY=1;exitDx=0;exitDy=0;entryX=0;entryY=0.5;entryDx=0;entryDy=0;" parent="1" source="7zXNQrcgC3VbLbUue6cI-2" edge="1">
          <mxGeometry relative="1" as="geometry">
            <mxPoint x="320.5" y="156.5" as="sourcePoint" />
            <mxPoint x="440.5" y="256.5" as="targetPoint" />
            <Array as="points">
              <mxPoint x="320" y="257" />
            </Array>
          </mxGeometry>
        </mxCell>
        <mxCell id="7zXNQrcgC3VbLbUue6cI-2" value="P1" style="rounded=0;whiteSpace=wrap;html=1;" parent="1" vertex="1">
          <mxGeometry x="280" y="120" width="80" height="40" as="geometry" />
        </mxCell>
        <mxCell id="7zXNQrcgC3VbLbUue6cI-3" value="P2" style="rounded=0;whiteSpace=wrap;html=1;" parent="1" vertex="1">
          <mxGeometry x="400" y="120" width="80" height="40" as="geometry" />
        </mxCell>
        <mxCell id="7zXNQrcgC3VbLbUue6cI-4" value="Pn" style="rounded=0;whiteSpace=wrap;html=1;" parent="1" vertex="1">
          <mxGeometry x="550" y="120" width="80" height="40" as="geometry" />
        </mxCell>
        <mxCell id="7zXNQrcgC3VbLbUue6cI-7" value="" style="endArrow=none;dashed=1;html=1;dashPattern=1 3;strokeWidth=3;rounded=0;" parent="1" edge="1">
          <mxGeometry width="50" height="50" relative="1" as="geometry">
            <mxPoint x="500" y="139.5" as="sourcePoint" />
            <mxPoint x="530" y="139.5" as="targetPoint" />
          </mxGeometry>
        </mxCell>
        <mxCell id="7zXNQrcgC3VbLbUue6cI-8" value="" style="endArrow=none;html=1;rounded=0;dashed=1;" parent="1" edge="1">
          <mxGeometry width="50" height="50" relative="1" as="geometry">
            <mxPoint x="260" y="180" as="sourcePoint" />
            <mxPoint x="650" y="180" as="targetPoint" />
          </mxGeometry>
        </mxCell>
        <mxCell id="7zXNQrcgC3VbLbUue6cI-9" value="" style="rounded=0;whiteSpace=wrap;html=1;" parent="1" vertex="1">
          <mxGeometry x="440" y="200" width="55" height="90" as="geometry" />
        </mxCell>
        <mxCell id="7zXNQrcgC3VbLbUue6cI-10" value="全局虚拟内存" style="text;html=1;align=center;verticalAlign=middle;resizable=0;points=[];autosize=1;strokeColor=none;fillColor=none;" parent="1" vertex="1">
          <mxGeometry x="530" y="230" width="100" height="30" as="geometry" />
        </mxCell>
        <mxCell id="7zXNQrcgC3VbLbUue6cI-42" style="edgeStyle=orthogonalEdgeStyle;rounded=0;orthogonalLoop=1;jettySize=auto;html=1;exitX=0.444;exitY=-0.004;exitDx=0;exitDy=0;entryX=1;entryY=0.5;entryDx=0;entryDy=0;exitPerimeter=0;" parent="1" source="7zXNQrcgC3VbLbUue6cI-11" target="7zXNQrcgC3VbLbUue6cI-38" edge="1">
          <mxGeometry relative="1" as="geometry">
            <Array as="points">
              <mxPoint x="439" y="346" />
            </Array>
          </mxGeometry>
        </mxCell>
        <mxCell id="7zXNQrcgC3VbLbUue6cI-11" value="" style="rounded=0;whiteSpace=wrap;html=1;" parent="1" vertex="1">
          <mxGeometry x="415" y="380" width="55" height="60" as="geometry" />
        </mxCell>
        <mxCell id="7zXNQrcgC3VbLbUue6cI-12" value="" style="rounded=0;whiteSpace=wrap;html=1;" parent="1" vertex="1">
          <mxGeometry x="295" y="380" width="55" height="60" as="geometry" />
        </mxCell>
        <mxCell id="7zXNQrcgC3VbLbUue6cI-14" value="" style="rounded=0;whiteSpace=wrap;html=1;" parent="1" vertex="1">
          <mxGeometry x="565" y="380" width="55" height="60" as="geometry" />
        </mxCell>
        <mxCell id="7zXNQrcgC3VbLbUue6cI-16" value="" style="endArrow=none;html=1;rounded=0;dashed=1;" parent="1" edge="1">
          <mxGeometry width="50" height="50" relative="1" as="geometry">
            <mxPoint x="260" y="360" as="sourcePoint" />
            <mxPoint x="650" y="360" as="targetPoint" />
          </mxGeometry>
        </mxCell>
        <mxCell id="7zXNQrcgC3VbLbUue6cI-17" value="" style="endArrow=none;html=1;rounded=0;dashed=1;" parent="1" edge="1">
          <mxGeometry width="50" height="50" relative="1" as="geometry">
            <mxPoint x="260" y="310" as="sourcePoint" />
            <mxPoint x="650" y="310" as="targetPoint" />
          </mxGeometry>
        </mxCell>
        <mxCell id="7zXNQrcgC3VbLbUue6cI-18" value="" style="rounded=0;whiteSpace=wrap;html=1;fillColor=#dae8fc;strokeColor=#6c8ebf;" parent="1" vertex="1">
          <mxGeometry x="295" y="420" width="55" height="20" as="geometry" />
        </mxCell>
        <mxCell id="7zXNQrcgC3VbLbUue6cI-19" value="" style="rounded=0;whiteSpace=wrap;html=1;fillColor=#d5e8d4;strokeColor=#82b366;" parent="1" vertex="1">
          <mxGeometry x="415" y="400" width="55" height="20" as="geometry" />
        </mxCell>
        <mxCell id="7zXNQrcgC3VbLbUue6cI-20" value="" style="rounded=0;whiteSpace=wrap;html=1;fillColor=#dae8fc;strokeColor=#6c8ebf;" parent="1" vertex="1">
          <mxGeometry x="440.5" y="270" width="55" height="20" as="geometry" />
        </mxCell>
        <mxCell id="7zXNQrcgC3VbLbUue6cI-22" value="" style="rounded=0;whiteSpace=wrap;html=1;fillColor=#d5e8d4;strokeColor=#82b366;" parent="1" vertex="1">
          <mxGeometry x="440" y="250" width="55" height="20" as="geometry" />
        </mxCell>
        <mxCell id="7zXNQrcgC3VbLbUue6cI-23" value="" style="endArrow=none;dashed=1;html=1;dashPattern=1 3;strokeWidth=3;rounded=0;" parent="1" edge="1">
          <mxGeometry width="50" height="50" relative="1" as="geometry">
            <mxPoint x="500" y="409.5" as="sourcePoint" />
            <mxPoint x="530" y="409.5" as="targetPoint" />
          </mxGeometry>
        </mxCell>
        <mxCell id="7zXNQrcgC3VbLbUue6cI-24" value="本地物理内存" style="text;html=1;align=center;verticalAlign=middle;resizable=0;points=[];autosize=1;strokeColor=none;fillColor=none;" parent="1" vertex="1">
          <mxGeometry x="530" y="440" width="100" height="30" as="geometry" />
        </mxCell>
        <mxCell id="7zXNQrcgC3VbLbUue6cI-25" value="DSM" style="text;html=1;align=center;verticalAlign=middle;resizable=0;points=[];autosize=1;strokeColor=none;fillColor=none;" parent="1" vertex="1">
          <mxGeometry x="555" y="318" width="50" height="30" as="geometry" />
        </mxCell>
        <mxCell id="7zXNQrcgC3VbLbUue6cI-27" value="1" style="ellipse;whiteSpace=wrap;html=1;aspect=fixed;" parent="1" vertex="1">
          <mxGeometry x="325" y="205" width="15" height="15" as="geometry" />
        </mxCell>
        <mxCell id="7zXNQrcgC3VbLbUue6cI-28" value="" style="rounded=0;whiteSpace=wrap;html=1;fillColor=#bac8d3;strokeColor=#23445d;" parent="1" vertex="1">
          <mxGeometry x="565" y="380" width="55" height="20" as="geometry" />
        </mxCell>
        <mxCell id="7zXNQrcgC3VbLbUue6cI-57" style="edgeStyle=orthogonalEdgeStyle;rounded=0;orthogonalLoop=1;jettySize=auto;html=1;exitX=0;exitY=1;exitDx=0;exitDy=0;entryX=0;entryY=0.5;entryDx=0;entryDy=0;" parent="1" edge="1">
          <mxGeometry relative="1" as="geometry">
            <mxPoint x="275" y="334" as="sourcePoint" />
            <mxPoint x="295" y="410" as="targetPoint" />
            <Array as="points">
              <mxPoint x="275" y="410" />
            </Array>
          </mxGeometry>
        </mxCell>
        <mxCell id="7zXNQrcgC3VbLbUue6cI-29" value="sigsegv_handler" style="rounded=1;whiteSpace=wrap;html=1;" parent="1" vertex="1">
          <mxGeometry x="270" y="316" width="95" height="18" as="geometry" />
        </mxCell>
        <mxCell id="7zXNQrcgC3VbLbUue6cI-30" style="edgeStyle=orthogonalEdgeStyle;rounded=0;orthogonalLoop=1;jettySize=auto;html=1;exitX=0;exitY=0.75;exitDx=0;exitDy=0;entryX=0.204;entryY=-0.001;entryDx=0;entryDy=0;entryPerimeter=0;" parent="1" source="7zXNQrcgC3VbLbUue6cI-22" edge="1">
          <mxGeometry relative="1" as="geometry">
            <mxPoint x="441" y="265" as="sourcePoint" />
            <mxPoint x="319.36" y="317.98199999999997" as="targetPoint" />
          </mxGeometry>
        </mxCell>
        <mxCell id="7zXNQrcgC3VbLbUue6cI-31" value="触发SIGSEGV" style="text;html=1;align=center;verticalAlign=middle;resizable=0;points=[];autosize=1;strokeColor=none;fillColor=none;" parent="1" vertex="1">
          <mxGeometry x="349" y="260" width="100" height="30" as="geometry" />
        </mxCell>
        <mxCell id="7zXNQrcgC3VbLbUue6cI-32" value="2" style="ellipse;whiteSpace=wrap;html=1;aspect=fixed;" parent="1" vertex="1">
          <mxGeometry x="339" y="267.5" width="15" height="15" as="geometry" />
        </mxCell>
        <mxCell id="7zXNQrcgC3VbLbUue6cI-36" value="3" style="ellipse;whiteSpace=wrap;html=1;aspect=fixed;" parent="1" vertex="1">
          <mxGeometry x="460" y="336" width="15" height="15" as="geometry" />
        </mxCell>
        <mxCell id="7zXNQrcgC3VbLbUue6cI-38" value="" style="rounded=0;whiteSpace=wrap;html=1;fillColor=#d5e8d4;strokeColor=#82b366;" parent="1" vertex="1">
          <mxGeometry x="360" y="336" width="55" height="20" as="geometry" />
        </mxCell>
        <mxCell id="7zXNQrcgC3VbLbUue6cI-39" style="edgeStyle=orthogonalEdgeStyle;rounded=0;orthogonalLoop=1;jettySize=auto;html=1;exitX=0;exitY=0.5;exitDx=0;exitDy=0;entryX=0.416;entryY=-0.036;entryDx=0;entryDy=0;entryPerimeter=0;" parent="1" source="7zXNQrcgC3VbLbUue6cI-38" edge="1">
          <mxGeometry relative="1" as="geometry">
            <mxPoint x="361" y="346" as="sourcePoint" />
            <mxPoint x="318.8799999999999" y="377.8399999999999" as="targetPoint" />
          </mxGeometry>
        </mxCell>
        <mxCell id="7zXNQrcgC3VbLbUue6cI-41" style="edgeStyle=orthogonalEdgeStyle;rounded=0;orthogonalLoop=1;jettySize=auto;html=1;exitX=1;exitY=0.5;exitDx=0;exitDy=0;entryX=0.717;entryY=-0.078;entryDx=0;entryDy=0;entryPerimeter=0;" parent="1" source="7zXNQrcgC3VbLbUue6cI-29" target="7zXNQrcgC3VbLbUue6cI-11" edge="1">
          <mxGeometry relative="1" as="geometry" />
        </mxCell>
        <mxCell id="7zXNQrcgC3VbLbUue6cI-43" value="4" style="ellipse;whiteSpace=wrap;html=1;aspect=fixed;" parent="1" vertex="1">
          <mxGeometry x="358" y="359" width="15" height="15" as="geometry" />
        </mxCell>
        <mxCell id="7zXNQrcgC3VbLbUue6cI-45" value="" style="rounded=0;whiteSpace=wrap;html=1;fillColor=#bac8d3;strokeColor=#23445d;" parent="1" vertex="1">
          <mxGeometry x="440" y="200" width="55" height="20" as="geometry" />
        </mxCell>
        <mxCell id="7zXNQrcgC3VbLbUue6cI-46" value="" style="endArrow=none;dashed=1;html=1;dashPattern=1 3;strokeWidth=3;rounded=0;" parent="1" edge="1">
          <mxGeometry width="50" height="50" relative="1" as="geometry">
            <mxPoint x="467.02" y="248.52" as="sourcePoint" />
            <mxPoint x="467.02" y="214" as="targetPoint" />
          </mxGeometry>
        </mxCell>
        <mxCell id="7zXNQrcgC3VbLbUue6cI-47" value="访问远端内存" style="text;html=1;align=center;verticalAlign=middle;resizable=0;points=[];autosize=1;strokeColor=none;fillColor=none;" parent="1" vertex="1">
          <mxGeometry x="332.5" y="197.5" width="100" height="30" as="geometry" />
        </mxCell>
        <mxCell id="7zXNQrcgC3VbLbUue6cI-50" value="取页请求" style="text;html=1;align=center;verticalAlign=middle;resizable=0;points=[];autosize=1;strokeColor=none;fillColor=none;" parent="1" vertex="1">
          <mxGeometry x="468" y="328.5" width="70" height="30" as="geometry" />
        </mxCell>
        <mxCell id="7zXNQrcgC3VbLbUue6cI-52" value="响应" style="text;html=1;align=center;verticalAlign=middle;resizable=0;points=[];autosize=1;strokeColor=none;fillColor=none;" parent="1" vertex="1">
          <mxGeometry x="363" y="351" width="50" height="30" as="geometry" />
        </mxCell>
        <mxCell id="7zXNQrcgC3VbLbUue6cI-55" value="copy" style="rounded=0;whiteSpace=wrap;html=1;fillColor=#d5e8d4;strokeColor=#82b366;" parent="1" vertex="1">
          <mxGeometry x="295" y="400" width="55" height="20" as="geometry" />
        </mxCell>
        <mxCell id="7zXNQrcgC3VbLbUue6cI-58" value="授权" style="text;html=1;align=center;verticalAlign=middle;resizable=0;points=[];autosize=1;strokeColor=none;fillColor=none;" parent="1" vertex="1">
          <mxGeometry x="235" y="358" width="50" height="30" as="geometry" />
        </mxCell>
        <mxCell id="7zXNQrcgC3VbLbUue6cI-59" value="5" style="ellipse;whiteSpace=wrap;html=1;aspect=fixed;" parent="1" vertex="1">
          <mxGeometry x="252.5" y="341" width="15" height="15" as="geometry" />
        </mxCell>
      </root>
    </mxGraphModel>
  </diagram>
</mxfile>
